<svg xmlns="http://www.w3.org/2000/svg" xmlns:svg="http://www.w3.org/2000/svg" id="svg189" width="163.162" height="294.818" version="1.1" viewBox="0 0 43.17 78.004"><metadata id="metadata193"/><defs id="defs73"><clipPath id="clipPath4"><path id="path2" d="M 0,0 H 742.75 V 792 H 0 Z"/></clipPath><clipPath id="clip1"><rect id="rect6" width="743" height="792" x="0" y="0"/></clipPath><clipPath id="clipPath13"><path id="path11" d="m 0.25391,0 h 742.75 v 792 h -742.75 z"/></clipPath><clipPath id="clip3"><rect id="rect15" width="743" height="792" x="0" y="0"/></clipPath><clipPath id="clipPath22"><path id="path20" d="m 0,0.89844 h 195 v 2.6602 H 0 Z"/></clipPath><clipPath id="clipPath26"><path id="path24" d="m 1029,0.89844 h 195 v 2.6602 h -195 z"/></clipPath><clipPath id="clip5"><rect id="rect28" width="1224" height="4" x="0" y="0"/></clipPath><clipPath id="clipPath35"><path id="path33" d="M 1,1 H 70.516 V 59.637 H 1 Z"/></clipPath><clipPath id="clip8"><rect id="rect37" width="71" height="60" x="0" y="0"/></clipPath><clipPath id="clipPath44"><path id="path42" d="m 0.13281,0.21484 h 37.453 v 2.7852 h -37.453 z"/></clipPath><clipPath id="clipPath48"><path id="path46" d="m 0.13281,283 h 37.453 v 2.8164 h -37.453 z"/></clipPath><clipPath id="clip10"><rect id="rect50" width="38" height="286" x="0" y="0"/></clipPath><clipPath id="clipPath57"><path id="path55" d="m 0.14062,0.44531 h 2.8594 v 37.43 h -2.8594 z"/></clipPath><clipPath id="clipPath61"><path id="path59" d="m 162,0.44531 h 2.1992 v 37.43 H 162 Z"/></clipPath><clipPath id="clip13"><rect id="rect63" width="165" height="38" x="0" y="0"/></clipPath><clipPath id="clip16"><rect id="rect68" width="1224" height="775" x="0" y="0"/></clipPath></defs><g id="g187" transform="translate(-82.931697,-65.31713)"><g id="g129" style="fill:#fff"><path id="path75" d="m 86.097,141.01 18.426,-31.903 18.42,31.903 z m 39.849,0.58291 -20.424,-35.38 c -0.20808,-0.35829 -0.5898,-0.57326 -0.99907,-0.57326 -0.41066,0 -0.79513,0.22048 -1.0032,0.57326 l -20.423,35.38 c -0.21084,0.36105 -0.21084,0.80064 0,1.152 0.20809,0.35967 0.5898,0.57602 0.99908,0.57602 h 40.848 c 0.41066,0 0.79513,-0.22324 1.0018,-0.57602 0.20808,-0.36104 0.20808,-0.79926 0,-1.152"/><path id="path77" d="m 104.54,128.08 c 1.316,0 2.3785,1.0625 2.3785,2.3757 0,1.3146 -1.0625,2.3785 -2.3785,2.3785 -1.3133,0 -2.3757,-1.0638 -2.3757,-2.3785 0,-1.3133 1.0625,-2.3757 2.3757,-2.3757 m -2.8774,2.4322 c 0,1.6082 1.305,2.9146 2.9132,2.9146 1.6068,0 2.9132,-1.3064 2.9132,-2.9146 0,-1.6096 -1.3064,-2.9132 -2.9132,-2.9132 -1.6082,0 -2.9132,1.3036 -2.9132,2.9132"/><path id="path79" d="m 104.57,127.6 c 1.6082,0 2.9146,1.3036 2.9146,2.9146 0,1.6068 -1.3064,2.9132 -2.9146,2.9132 -1.6068,0 -2.9118,-1.3064 -2.9118,-2.9132 0,-1.6109 1.305,-2.9146 2.9118,-2.9146 m -4.9361,-4.7845 2.3716,5.4405 -5.7202,-1.5902 4.943,3.2976 -5.6734,1.7542 5.9352,0.10198 -3.8213,4.5406 5.0491,-3.1226 -0.7593,5.8884 2.5576,-5.3564 2.5452,5.3661 -0.74552,-5.8911 5.0422,3.1378 -3.8103,-4.5558 5.9352,-0.0868 -5.6665,-1.7666 4.9472,-3.2825 -5.7244,1.5723 2.3881,-5.4322 -3.9632,4.418 -0.93155,-5.8649 -0.94533,5.8608 z"/><path id="path81" d="m 104.54,132.83 c 1.316,0 2.3785,-1.0638 2.3785,-2.3785 0,-1.3133 -1.0625,-2.3757 -2.3785,-2.3757 -1.3133,0 -2.3757,1.0625 -2.3757,2.3757 0,1.3146 1.0625,2.3785 2.3757,2.3785"/><path id="path83" d="m 86.097,100.69 18.426,-31.772 18.42,31.772 z m 39.84,0.58015 -20.423,-35.377 c -0.20808,-0.36243 -0.5898,-0.57602 -1.0032,-0.57602 -0.40928,0 -0.78961,0.22324 -0.99907,0.57602 l -20.425,35.377 c -0.20671,0.36105 -0.20671,0.79926 0,1.152 0.21084,0.35829 0.59256,0.57602 1.0032,0.57602 h 40.848 c 0.40928,0 0.791,-0.22324 0.99908,-0.57602 0.21084,-0.35829 0.21084,-0.79651 0,-1.152"/><path id="path85" d="m 102.56,87.511 c -0.36794,0.0565 -0.72898,0.12402 -1.0983,0.1819 -0.54708,0.0868 -1.0955,0.1695 -1.644,0.25218 -0.52641,0.0841 -1.0514,0.15986 -1.5723,0.24392 -0.24667,0.0413 -0.49058,0.0799 -0.73449,0.12402 -0.11438,0.0234 -0.14056,0.0675 -0.08268,0.16674 0.10886,0.20257 0.23427,0.39412 0.37483,0.57464 0.1571,0.19706 0.40652,0.30317 0.65594,0.27147 0.14056,-0.0165 0.2825,-0.0289 0.42306,-0.0482 0.15985,-0.0221 0.3197,-0.051 0.4768,-0.0813 -0.0193,0.0427 -0.05099,0.0786 -0.08957,0.10335 -0.44097,0.2949 -0.88332,0.5898 -1.3257,0.88608 -0.37207,0.24805 -0.74,0.49334 -1.1079,0.74414 -0.13643,0.0951 -0.15021,0.12403 -0.0441,0.24667 0.11851,0.14332 0.24667,0.27423 0.38447,0.39963 0.23978,0.20533 0.50574,0.24392 0.78686,0.0772 0.05375,-0.0289 0.113,-0.0551 0.16399,-0.0896 0.46715,-0.31971 0.93431,-0.64355 1.4056,-0.96187 0.07579,-0.0537 0.15572,-0.0978 0.23978,-0.14056 0.41892,-0.19155 0.84474,-0.37758 1.2678,-0.56638 l 0.80615,-0.35553 0.0386,0.0427 c -0.0289,0.01 -0.0565,0.0221 -0.0827,0.0372 -0.58015,0.42719 -1.1562,0.85163 -1.7294,1.2816 -0.11162,0.0827 -0.21773,0.17915 -0.31419,0.28112 -0.47956,0.53192 -0.95636,1.0694 -1.4345,1.604 -0.17225,0.19017 -0.339,0.37758 -0.50436,0.56637 -0.06063,0.0482 -0.08406,0.12816 -0.05512,0.19982 0.07579,0.19155 0.20809,0.35553 0.37758,0.47267 0.14745,0.11575 0.35554,0.10886 0.50023,-0.0124 0.12678,-0.0965 0.24667,-0.20257 0.3638,-0.31006 0.44235,-0.4079 0.87781,-0.81993 1.3202,-1.2237 0.89021,-0.81304 1.9265,-1.4538 3.0565,-1.8824 0.38447,-0.15296 0.78823,-0.25631 1.2003,-0.30455 0.58015,-0.0579 1.1631,-0.0317 1.7363,0.0744 0.57602,0.0992 1.1369,0.28801 1.6578,0.55673 0.0441,0.0262 0.0868,0.0579 0.12815,0.0896 -0.0413,0.0606 -0.073,0.113 -0.10886,0.15985 -0.14056,0.19293 -0.2825,0.37896 -0.41617,0.57051 -0.36518,0.50574 -0.66835,1.057 -0.89848,1.6357 -0.19982,0.51814 -0.1378,0.99908 0.22049,1.4208 0.0992,0.10886 0.21772,0.19981 0.3514,0.26045 0.20257,0.0992 0.23978,0.0799 0.36104,-0.10887 0.95085,-1.4772 1.8934,-2.949 2.8277,-4.4194 0.93431,-1.4648 1.8769,-2.9325 2.8208,-4.3946 0.0799,-0.10611 0.0854,-0.24667 0.0152,-0.35829 -0.25218,-0.48645 -0.49471,-0.97978 -0.74276,-1.4731 -0.33624,-0.67249 -0.67524,-1.3477 -1.0142,-2.0161 -0.0386,-0.0717 -0.0827,-0.1378 -0.12816,-0.19982 -0.13092,0.0717 -0.17915,0.1819 -0.24254,0.27837 -0.94258,1.367 -1.8824,2.7382 -2.8181,4.1079 -0.0675,0.10611 -0.17914,0.17225 -0.30041,0.18328 -0.37482,0.0469 -0.75241,0.10886 -1.1203,0.16536 -0.36518,0.0579 -0.73036,0.11851 -1.0955,0.17639 -0.36518,0.0579 -0.73312,0.11438 -1.0983,0.17363 -0.38447,0.0565 -0.76757,0.12127 -1.152,0.1819 -0.33624,0.051 -0.67248,0.10198 -1.006,0.15434"/><path id="path87" d="m 112.19,97.119 h -8.045 l -7.9885,0.003 c -0.06752,0 -0.13367,-0.003 -0.2012,0 -0.13367,0.006 -0.16674,0.0345 -0.16674,0.16675 -0.0069,0.52503 -0.0069,1.0528 0,1.5778 0,0.13781 0.04134,0.16536 0.1819,0.17639 h 16.35 c 0.13091,-0.011 0.16399,-0.0386 0.17225,-0.16674 V 97.432 c 0,-0.31281 0,-0.31281 -0.30316,-0.31281"/><path id="path89" d="m 103.56,92.828 c -0.15709,0.0386 -0.22048,0.23013 -0.11851,0.35691 0.10198,0.13643 0.19155,0.28663 0.26872,0.44097 0.0992,0.21773 0.14056,0.452 0.0386,0.68213 -0.0482,0.0923 -0.10198,0.1819 -0.16399,0.26459 -0.19155,0.2825 -0.24529,0.63389 -0.14056,0.95773 0.0648,0.18604 0.14332,0.36518 0.24254,0.53468 0.11989,0.21498 0.15434,0.42582 0.0482,0.65319 -0.0124,0.0289 -0.0179,0.0579 -0.0482,0.13092 0.10335,0.01 0.18052,0.0193 0.2508,0.0262 0.0992,0.01 0.18603,-0.0551 0.20395,-0.1502 0.0717,-0.18053 0.0717,-0.38172 0.007,-0.56086 -0.0606,-0.14332 -0.12678,-0.28526 -0.20119,-0.41893 -0.21223,-0.36793 -0.22738,-0.7276 0.0441,-1.0831 0.1378,-0.17501 0.21083,-0.39687 0.20257,-0.62012 -0.0165,-0.46164 -0.21498,-0.84198 -0.52228,-1.1755 -0.0289,-0.0289 -0.0703,-0.0413 -0.11162,-0.0386"/><path id="path91" d="m 102.92,92.832 c -0.16399,0.0868 -0.19293,0.21084 -0.0868,0.3583 0.0896,0.11851 0.1695,0.24253 0.23702,0.37482 0.16123,0.33211 0.17639,0.65319 -0.0675,0.9729 -0.26872,0.35277 -0.28112,0.7524 -0.12127,1.1589 0.0703,0.17639 0.17364,0.33899 0.25494,0.51263 0.0744,0.14331 0.0744,0.31695 0,0.4644 -0.0179,0.0413 -0.0372,0.0896 -0.0634,0.14331 0.28939,0.14056 0.45475,0.0579 0.49334,-0.22048 0.0358,-0.22187 -0.007,-0.44787 -0.11438,-0.64355 -0.0455,-0.0772 -0.0868,-0.1502 -0.12815,-0.22737 -0.19569,-0.34589 -0.21911,-0.68903 0.0317,-1.0211 0.26182,-0.3514 0.27836,-0.7276 0.14056,-1.1245 -0.0896,-0.25769 -0.23014,-0.49609 -0.41617,-0.69453 -0.0413,-0.0469 -0.0854,-0.0896 -0.15985,-0.0537"/><path id="path93" d="m 105.4,92.818 c -0.0772,0.0482 -0.14745,0.10887 -0.20533,0.17639 -0.0455,0.0606 0.01,0.11576 0.0455,0.16675 0.0923,0.13229 0.17914,0.26596 0.25493,0.40652 0.16399,0.32659 0.17639,0.64905 -0.0592,0.95498 -0.0193,0.0248 -0.0358,0.051 -0.0524,0.0758 -0.1502,0.23702 -0.20808,0.52227 -0.15985,0.79788 0.0413,0.23289 0.12816,0.45476 0.26321,0.64906 0.0992,0.14056 0.14055,0.31695 0.11438,0.49058 -0.0179,0.0703 -0.0413,0.14056 -0.0703,0.20671 -0.0193,0.0689 0,0.11575 0.073,0.12264 0.25493,0.0248 0.33072,0.0152 0.37896,-0.24942 0.0441,-0.22738 0.007,-0.46165 -0.10887,-0.66284 -0.0482,-0.0841 -0.10335,-0.1695 -0.14469,-0.25631 -0.17226,-0.35003 -0.18604,-0.68902 0.0606,-1.0115 0.14194,-0.16675 0.21497,-0.38172 0.20532,-0.60221 0.004,-0.50849 -0.21497,-0.87092 -0.49333,-1.2072 -0.0193,-0.0317 -0.0896,-0.0703 -0.10198,-0.0579"/><path id="path95" d="m 109.03,94.577 c -0.12265,0.18328 -0.19017,0.39274 -0.19017,0.60772 -0.003,0.28801 0.0841,0.56775 0.24116,0.80477 0.15296,0.24529 0.23013,0.4892 0.0758,0.76343 -0.0413,0.0744 -0.005,0.113 0.0772,0.12265 0.0289,0.003 0.0606,0.003 0.0937,0 0.0951,0 0.20395,0.0165 0.24529,-0.10611 0.0579,-0.17225 0.10335,-0.34864 0.0386,-0.52503 -0.0634,-0.17226 -0.14057,-0.339 -0.22738,-0.50161 -0.20395,-0.36794 -0.22324,-0.71382 0.0455,-1.0735 0.26872,-0.35416 0.24943,-0.74276 0.10198,-1.1396 -0.0537,-0.14331 -0.1571,-0.13642 -0.30731,-0.0923 -0.0992,0.0289 -0.10197,0.0703 -0.051,0.22325 0.0648,0.19568 0.11162,0.39687 0.0358,0.59531 -0.0482,0.11575 -0.10886,0.22186 -0.17914,0.32108"/><path id="path97" d="m 104.12,95.764 c 0.0482,0.10198 0.0992,0.19844 0.15985,0.2949 0.12816,0.21084 0.1695,0.43133 0.0538,0.66559 -0.0152,0.0413 -0.0317,0.0799 -0.0441,0.12127 0.0606,0.0124 0.11851,0.022 0.17915,0.0262 0.20394,0.008 0.23978,-0.0234 0.2949,-0.22187 0.0537,-0.20395 0.0317,-0.42443 -0.0606,-0.61461 -0.0551,-0.11713 -0.12954,-0.22737 -0.18604,-0.34312 -0.17638,-0.339 -0.18879,-0.67111 0.0482,-0.99219 0.0317,-0.0386 0.0579,-0.0786 0.0827,-0.12127 0.22462,-0.38998 0.1695,-0.77997 -0.0124,-1.1686 -0.0234,-0.0413 -0.0648,-0.0661 -0.10886,-0.073 -0.16398,0.007 -0.26734,0.17501 -0.19844,0.32246 0.11438,0.31143 0.10198,0.59669 -0.10611,0.87505 -0.28525,0.38034 -0.27836,0.8034 -0.10197,1.2292"/><path id="path99" d="m 99.556,94.131 c -0.03168,0.15296 -0.09646,0.29765 -0.19568,0.41892 -0.15021,0.21222 -0.22049,0.47404 -0.19706,0.73311 0.0083,0.22462 0.07304,0.44236 0.19155,0.63114 0.1695,0.26597 0.28801,0.53468 0.11576,0.84888 -0.02893,0.0537 0.0028,0.0992 0.06063,0.11162 0.0248,0.006 0.04961,0.006 0.07992,0.006 0.24254,-0.008 0.27561,-0.0289 0.30317,-0.24253 0.02205,-0.13367 0.02205,-0.26872 0,-0.39964 -0.0441,-0.1502 -0.10197,-0.29214 -0.17501,-0.42581 -0.07441,-0.14745 -0.16674,-0.28525 -0.18052,-0.46164 -0.03447,-0.24667 0.03583,-0.4961 0.19017,-0.69178 0.11713,-0.14745 0.1819,-0.32659 0.18741,-0.51538 0.0041,-0.051 -0.01242,-0.10473 -0.04823,-0.14332 -0.09922,-0.0772 -0.31282,0.006 -0.33211,0.13092"/><path id="path101" d="m 102.58,94.151 c -0.0165,0.13091 -0.0703,0.24942 -0.15434,0.3514 -0.19155,0.24667 -0.27147,0.56086 -0.226,0.87229 0.0276,0.226 0.11162,0.44373 0.23978,0.63252 0.10886,0.1447 0.15572,0.3266 0.13367,0.50575 -0.0165,0.0772 -0.0386,0.15434 -0.0675,0.22875 -0.0276,0.0896 -0.005,0.13091 0.0841,0.13918 h 0.073 c 0.21498,-0.008 0.26045,-0.0496 0.2949,-0.26872 0.0413,-0.1943 0.0152,-0.39687 -0.0703,-0.57877 -0.0551,-0.10887 -0.12265,-0.21498 -0.17639,-0.32384 -0.1695,-0.33487 -0.19844,-0.66973 0.0358,-0.99219 0.0413,-0.0551 0.0772,-0.11575 0.10887,-0.17225 0.073,-0.12265 0.11162,-0.26321 0.11438,-0.40377 0.003,-0.0482 -0.0152,-0.0965 -0.0441,-0.13091 -0.10198,-0.0841 -0.33073,0.008 -0.34589,0.14056"/><path id="path103" d="m 105.07,94.364 c -0.0482,-0.0441 -0.12816,-0.0317 -0.16123,0.0262 -0.23703,0.27561 -0.34451,0.64079 -0.29077,1.0018 0.0358,0.22738 0.12127,0.44235 0.2508,0.63114 0.0951,0.13092 0.14332,0.29077 0.13092,0.45476 -0.0165,0.0841 -0.0386,0.16536 -0.0675,0.24942 -0.0358,0.113 -0.0165,0.14194 0.10197,0.14745 h 0.0579 c 0.1888,-0.003 0.23978,-0.0386 0.27148,-0.23151 0.0165,-0.12127 0.0221,-0.24529 0.0138,-0.36794 -0.0248,-0.16261 -0.0868,-0.32246 -0.18328,-0.4575 -0.0951,-0.13643 -0.15985,-0.2949 -0.1819,-0.45751 -0.0234,-0.24943 0.005,-0.4768 0.16674,-0.68213 0.10198,-0.13092 0.0854,-0.16674 -0.0482,-0.27147 z"/><path id="path105" d="m 102.15,94.685 c 0.0138,-0.0317 0.0138,-0.0703 -0.003,-0.10198 -0.073,-0.10611 -0.31557,-0.10611 -0.38447,0 -0.0923,0.1378 -0.15021,0.29766 -0.16536,0.46302 -0.0345,0.33073 0.0413,0.66008 0.22048,0.93844 0.0413,0.0606 0.0799,0.12541 0.10887,0.19293 0.073,0.17226 0.0703,0.37069 -0.01,0.53744 -0.0537,0.11851 -0.0317,0.1502 0.10197,0.15985 h 0.0551 c 0.19155,0 0.22048,-0.0262 0.26872,-0.20533 0.0606,-0.24253 0.0248,-0.49885 -0.0992,-0.71658 -0.0772,-0.1254 -0.1447,-0.25631 -0.20395,-0.39136 -0.10887,-0.24667 -0.091,-0.53055 0.0468,-0.76481 0.0262,-0.0345 0.0482,-0.0703 0.0634,-0.11162"/><path id="path107" d="m 106.21,94.545 c -0.062,-0.0965 -0.11852,-0.10336 -0.17915,-0.004 -0.0675,0.0965 -0.11851,0.19844 -0.16123,0.31144 -0.11438,0.37069 -0.0537,0.77721 0.17088,1.0983 0.17501,0.27561 0.23564,0.54708 0.0827,0.85163 0,0.0179 0.004,0.0386 0.01,0.0565 0.0799,0.007 0.16261,0.0165 0.24942,0.0221 0.0841,0.007 0.1571,-0.0469 0.17639,-0.13092 0.073,-0.1819 0.0772,-0.38998 0.01,-0.57602 -0.0703,-0.16674 -0.15434,-0.32246 -0.23702,-0.48093 -0.1254,-0.24254 -0.18328,-0.50161 -0.0772,-0.75241 0.0579,-0.12678 0.0413,-0.28112 -0.0441,-0.3955"/><path id="path109" d="m 100.89,94.65 c -0.0827,-0.0372 -0.17225,-0.0606 -0.26183,-0.0661 -0.0579,0.0124 -0.10886,0.0469 -0.1378,0.10198 -0.11576,0.22324 -0.15434,0.48369 -0.10473,0.73311 0.0441,0.23014 0.13367,0.45062 0.26458,0.64217 0.11576,0.16812 0.1447,0.37483 0.0841,0.56775 -0.0166,0.0579 -0.0455,0.11576 -0.0717,0.17914 0.24805,0.14332 0.41755,0.0841 0.47405,-0.15985 0.0138,-0.0537 0.0193,-0.10886 0.022,-0.16674 0.0234,-0.26872 -0.0951,-0.48921 -0.226,-0.71107 -0.19155,-0.32522 -0.26321,-0.6587 -0.0427,-1.0073 0.0165,-0.0358 0.0165,-0.0772 0,-0.113"/><path id="path111" d="m 98.234,96.852 c 0.09922,0.0138 0.1695,0.0262 0.24253,0.0289 0.14194,0.004 0.1695,-0.0179 0.21773,-0.15021 0.06752,-0.1819 0.06752,-0.38034 0,-0.56224 -0.05375,-0.14469 -0.12403,-0.28525 -0.2012,-0.41617 -0.11851,-0.19981 -0.17363,-0.42719 -0.15434,-0.65594 0.01242,-0.15572 -0.0055,-0.17639 -0.1254,-0.19706 -0.17501,-0.0248 -0.2384,0.007 -0.25907,0.15434 -0.0096,0.12127 -0.0096,0.24391 0.0069,0.36794 0.03172,0.24391 0.15021,0.45199 0.27836,0.66007 0.12816,0.1888 0.1447,0.43133 0.03859,0.6339 -0.01242,0.0317 -0.02205,0.0661 -0.0441,0.13643"/><path id="path113" d="m 100.07,95.051 c -0.23013,-0.0538 -0.32935,-0.0455 -0.31282,0.21084 0,0.0165 0.0055,0.0358 0.0055,0.0537 0.02618,0.26045 0.11575,0.50574 0.26321,0.72071 0.14745,0.19844 0.1695,0.46165 0.0606,0.68213 -0.051,0.10887 -0.0289,0.14469 0.0923,0.15434 0.0386,0.003 0.0744,0.003 0.11299,0 0.13781,0 0.1888,-0.0289 0.22049,-0.16674 0.0166,-0.0841 0.0289,-0.1695 0.0345,-0.25632 0.007,-0.17225 -0.0372,-0.34588 -0.12678,-0.49609 -0.1447,-0.24667 -0.28525,-0.49058 -0.27561,-0.79099 -0.003,-0.0482 -0.0317,-0.0896 -0.0744,-0.11162"/><path id="path115" d="m 108.54,95.089 c -0.16674,-0.0386 -0.32384,0.10197 -0.2949,0.27423 0.004,0.0427 0.0124,0.0841 0.0248,0.1254 0.0717,0.18879 0.15159,0.37483 0.24392,0.55673 0.12815,0.23013 0.18328,0.45475 0.0455,0.69729 -0.01,0.0275 -0.0193,0.0524 -0.0262,0.0813 0.29214,0.12402 0.44786,0.0441 0.49333,-0.23426 0.007,-0.0248 0.007,-0.051 0.007,-0.073 0.0179,-0.22462 -0.0427,-0.44924 -0.16674,-0.6339 -0.13091,-0.21497 -0.24391,-0.42995 -0.24391,-0.68902 0.007,-0.051 -0.0317,-0.0978 -0.0827,-0.10473"/><path id="path117" d="m 106.72,96.82 c 0.0992,0.0813 0.19292,0.0524 0.28525,0.0496 0.0772,0 0.1447,-0.0565 0.1571,-0.13229 0.0455,-0.1695 0.0868,-0.339 0.022,-0.51264 -0.0468,-0.14056 -0.11162,-0.28111 -0.1819,-0.41478 -0.0868,-0.14194 -0.14745,-0.29904 -0.18053,-0.46303 -0.0152,-0.0441 -0.0345,-0.0882 -0.0606,-0.12678 -0.0661,0.0386 -0.11713,0.0661 -0.16812,0.10198 -0.15985,0.10886 -0.17087,0.113 -0.10059,0.30041 0.0579,0.14745 0.12816,0.29214 0.20808,0.42995 0.11575,0.20808 0.16674,0.41341 0.0648,0.63665 -0.0193,0.0386 -0.0289,0.0799 -0.0455,0.13092"/><path id="path119" d="m 101.24,95.377 c -0.20119,0.003 -0.25356,0.0675 -0.1943,0.26183 0.0124,0.0427 0.0275,0.0799 0.0468,0.11851 0.0579,0.10887 0.11299,0.22049 0.17638,0.32659 0.12403,0.18191 0.14056,0.42031 0.0413,0.61874 -0.0193,0.0345 -0.0248,0.073 -0.0551,0.15572 0.10611,0.007 0.17088,0.0165 0.24116,0.0165 0.1571,0 0.17915,-0.022 0.22738,-0.16675 0.0703,-0.21359 0.0579,-0.44372 -0.0386,-0.64905 -0.0923,-0.20257 -0.19844,-0.39687 -0.29491,-0.59669 -0.0248,-0.0565 -0.0868,-0.0923 -0.1502,-0.0854"/><path id="path121" d="m 107.83,95.402 c -0.14056,0.0165 -0.17915,0.0606 -0.13367,0.19568 0.051,0.14469 0.11575,0.2825 0.19155,0.41616 0.14469,0.23014 0.19568,0.46027 0.0703,0.71796 -0.0124,0.0345 -0.01,0.0799 0.01,0.11438 0.0772,0.0772 0.35277,0.0262 0.38998,-0.0772 0.0331,-0.11162 0.0579,-0.22462 0.0772,-0.339 -0.0124,-0.18603 -0.0703,-0.36518 -0.16674,-0.52503 -0.0606,-0.11575 -0.12127,-0.23013 -0.17501,-0.34589 -0.0744,-0.16261 -0.0827,-0.17363 -0.26321,-0.15709"/><path id="path123" d="m 109.79,96.859 c 0.15986,0.0896 0.35829,0.0138 0.41617,-0.15985 0.0634,-0.22049 0.0441,-0.45751 -0.0551,-0.66559 -0.0634,-0.12403 -0.14332,-0.24667 -0.20119,-0.37483 -0.0896,-0.19155 -0.26872,-0.20119 -0.46716,-0.26596 0.003,0.0648 0.008,0.12816 0.022,0.19292 0.0538,0.14057 0.11851,0.28113 0.19155,0.41479 0.14469,0.24392 0.20809,0.4837 0.0703,0.74966 -0.008,0.0386 -0.003,0.0799 0.0234,0.10886"/><path id="path125" d="m 98.762,95.883 c 0.06477,0.15986 0.1571,0.29352 0.17639,0.45062 0.0193,0.1571 -0.03583,0.32108 -0.06477,0.52503 0.06753,0.004 0.15158,0.01 0.23702,0.0138 0.08957,0.008 0.1695,-0.0524 0.18604,-0.14194 0.10611,-0.31006 0.03858,-0.59118 -0.13092,-0.86403 -0.02893,-0.0634 -0.10611,-0.0923 -0.1695,-0.0675 z"/><path id="path127" d="m 107.53,95.854 c -0.0868,0.0193 -0.17364,0.051 -0.26045,0.0758 0.004,0.0331 0.011,0.0648 0.0193,0.0965 0.0331,0.073 0.073,0.14193 0.10059,0.21773 0.0496,0.15985 0.0345,0.33624 -0.0455,0.48369 -0.0455,0.0965 -0.0165,0.1378 0.0896,0.14469 0.0441,0.003 0.0868,0.003 0.13229,0 0.12403,-0.007 0.17088,-0.0289 0.2012,-0.14745 0.0785,-0.26183 0.0469,-0.54846 -0.091,-0.78824 -0.0317,-0.0537 -0.0758,-0.0992 -0.14607,-0.0827"/></g><path id="path131" d="m 86.097,141.01 18.426,-31.903 18.42,31.903 z m 39.849,0.58291 -20.424,-35.38 c -0.20808,-0.35829 -0.5898,-0.57326 -0.99907,-0.57326 -0.41066,0 -0.79513,0.22048 -1.0032,0.57326 l -20.423,35.38 c -0.21084,0.36105 -0.21084,0.80064 0,1.152 0.20809,0.35967 0.5898,0.57602 0.99908,0.57602 h 40.848 c 0.41066,0 0.79513,-0.22324 1.0018,-0.57602 0.20808,-0.36104 0.20808,-0.79926 0,-1.152"/><path id="path133" d="m 104.54,128.08 c 1.316,0 2.3785,1.0625 2.3785,2.3757 0,1.3146 -1.0625,2.3785 -2.3785,2.3785 -1.3133,0 -2.3757,-1.0638 -2.3757,-2.3785 0,-1.3133 1.0625,-2.3757 2.3757,-2.3757 m -2.8774,2.4322 c 0,1.6082 1.305,2.9146 2.9132,2.9146 1.6068,0 2.9132,-1.3064 2.9132,-2.9146 0,-1.6096 -1.3064,-2.9132 -2.9132,-2.9132 -1.6082,0 -2.9132,1.3036 -2.9132,2.9132" style="fill:#fff"/><g id="g185"><path id="path135" d="m 104.57,127.6 c 1.6082,0 2.9146,1.3036 2.9146,2.9146 0,1.6068 -1.3064,2.9132 -2.9146,2.9132 -1.6068,0 -2.9118,-1.3064 -2.9118,-2.9132 0,-1.6109 1.305,-2.9146 2.9118,-2.9146 m -4.9361,-4.7845 2.3716,5.4405 -5.7202,-1.5902 4.943,3.2976 -5.6734,1.7542 5.9352,0.10198 -3.8213,4.5406 5.0491,-3.1226 -0.7593,5.8884 2.5576,-5.3564 2.5452,5.3661 -0.74552,-5.8911 5.0422,3.1378 -3.8103,-4.5558 5.9352,-0.0868 -5.6665,-1.7666 4.9472,-3.2825 -5.7244,1.5723 2.3881,-5.4322 -3.9632,4.418 -0.93155,-5.8649 -0.94533,5.8608 z"/><path id="path137" d="m 104.54,132.83 c 1.316,0 2.3785,-1.0638 2.3785,-2.3785 0,-1.3133 -1.0625,-2.3757 -2.3785,-2.3757 -1.3133,0 -2.3757,1.0625 -2.3757,2.3757 0,1.3146 1.0625,2.3785 2.3757,2.3785"/><path id="path139" d="m 86.097,100.69 18.426,-31.772 18.42,31.772 z m 39.84,0.58015 -20.423,-35.377 c -0.20808,-0.36243 -0.5898,-0.57602 -1.0032,-0.57602 -0.40928,0 -0.78961,0.22324 -0.99907,0.57602 l -20.425,35.377 c -0.20671,0.36105 -0.20671,0.79926 0,1.152 0.21084,0.35829 0.59256,0.57602 1.0032,0.57602 h 40.848 c 0.40928,0 0.791,-0.22324 0.99908,-0.57602 0.21084,-0.35829 0.21084,-0.79651 0,-1.152"/><path id="path141" d="m 102.56,87.511 c -0.36794,0.0565 -0.72898,0.12402 -1.0983,0.1819 -0.54708,0.0868 -1.0955,0.1695 -1.644,0.25218 -0.52641,0.0841 -1.0514,0.15986 -1.5723,0.24392 -0.24667,0.0413 -0.49058,0.0799 -0.73449,0.12402 -0.11438,0.0234 -0.14056,0.0675 -0.08268,0.16674 0.10886,0.20257 0.23427,0.39412 0.37483,0.57464 0.1571,0.19706 0.40652,0.30317 0.65594,0.27147 0.14056,-0.0165 0.2825,-0.0289 0.42306,-0.0482 0.15985,-0.0221 0.3197,-0.051 0.4768,-0.0813 -0.0193,0.0427 -0.05099,0.0786 -0.08957,0.10335 -0.44097,0.2949 -0.88332,0.5898 -1.3257,0.88608 -0.37207,0.24805 -0.74,0.49334 -1.1079,0.74414 -0.13643,0.0951 -0.15021,0.12403 -0.0441,0.24667 0.11851,0.14332 0.24667,0.27423 0.38447,0.39963 0.23978,0.20533 0.50574,0.24392 0.78686,0.0772 0.05375,-0.0289 0.113,-0.0551 0.16399,-0.0896 0.46715,-0.31971 0.93431,-0.64355 1.4056,-0.96187 0.07579,-0.0537 0.15572,-0.0978 0.23978,-0.14056 0.41892,-0.19155 0.84474,-0.37758 1.2678,-0.56638 l 0.80615,-0.35553 0.0386,0.0427 c -0.0289,0.01 -0.0565,0.0221 -0.0827,0.0372 -0.58015,0.42719 -1.1562,0.85163 -1.7294,1.2816 -0.11162,0.0827 -0.21773,0.17915 -0.31419,0.28112 -0.47956,0.53192 -0.95636,1.0694 -1.4345,1.604 -0.17225,0.19017 -0.339,0.37758 -0.50436,0.56637 -0.06063,0.0482 -0.08406,0.12816 -0.05512,0.19982 0.07579,0.19155 0.20809,0.35553 0.37758,0.47267 0.14745,0.11575 0.35554,0.10886 0.50023,-0.0124 0.12678,-0.0965 0.24667,-0.20257 0.3638,-0.31006 0.44235,-0.4079 0.87781,-0.81993 1.3202,-1.2237 0.89021,-0.81304 1.9265,-1.4538 3.0565,-1.8824 0.38447,-0.15296 0.78823,-0.25631 1.2003,-0.30455 0.58015,-0.0579 1.1631,-0.0317 1.7363,0.0744 0.57602,0.0992 1.1369,0.28801 1.6578,0.55673 0.0441,0.0262 0.0868,0.0579 0.12815,0.0896 -0.0413,0.0606 -0.073,0.113 -0.10886,0.15985 -0.14056,0.19293 -0.2825,0.37896 -0.41617,0.57051 -0.36518,0.50574 -0.66835,1.057 -0.89848,1.6357 -0.19982,0.51814 -0.1378,0.99908 0.22049,1.4208 0.0992,0.10886 0.21772,0.19981 0.3514,0.26045 0.20257,0.0992 0.23978,0.0799 0.36104,-0.10887 0.95085,-1.4772 1.8934,-2.949 2.8277,-4.4194 0.93431,-1.4648 1.8769,-2.9325 2.8208,-4.3946 0.0799,-0.10611 0.0854,-0.24667 0.0152,-0.35829 -0.25218,-0.48645 -0.49471,-0.97978 -0.74276,-1.4731 -0.33624,-0.67249 -0.67524,-1.3477 -1.0142,-2.0161 -0.0386,-0.0717 -0.0827,-0.1378 -0.12816,-0.19982 -0.13092,0.0717 -0.17915,0.1819 -0.24254,0.27837 -0.94258,1.367 -1.8824,2.7382 -2.8181,4.1079 -0.0675,0.10611 -0.17914,0.17225 -0.30041,0.18328 -0.37482,0.0469 -0.75241,0.10886 -1.1203,0.16536 -0.36518,0.0579 -0.73036,0.11851 -1.0955,0.17639 -0.36518,0.0579 -0.73312,0.11438 -1.0983,0.17363 -0.38447,0.0565 -0.76757,0.12127 -1.152,0.1819 -0.33624,0.051 -0.67248,0.10198 -1.006,0.15434"/><path id="path143" d="m 112.19,97.119 h -8.045 l -7.9885,0.003 c -0.06752,0 -0.13367,-0.003 -0.2012,0 -0.13367,0.006 -0.16674,0.0345 -0.16674,0.16675 -0.0069,0.52503 -0.0069,1.0528 0,1.5778 0,0.13781 0.04134,0.16536 0.1819,0.17639 h 16.35 c 0.13091,-0.011 0.16399,-0.0386 0.17225,-0.16674 V 97.432 c 0,-0.31281 0,-0.31281 -0.30316,-0.31281"/><path id="path145" d="m 103.56,92.828 c -0.15709,0.0386 -0.22048,0.23013 -0.11851,0.35691 0.10198,0.13643 0.19155,0.28663 0.26872,0.44097 0.0992,0.21773 0.14056,0.452 0.0386,0.68213 -0.0482,0.0923 -0.10198,0.1819 -0.16399,0.26459 -0.19155,0.2825 -0.24529,0.63389 -0.14056,0.95773 0.0648,0.18604 0.14332,0.36518 0.24254,0.53468 0.11989,0.21498 0.15434,0.42582 0.0482,0.65319 -0.0124,0.0289 -0.0179,0.0579 -0.0482,0.13092 0.10335,0.01 0.18052,0.0193 0.2508,0.0262 0.0992,0.01 0.18603,-0.0551 0.20395,-0.1502 0.0717,-0.18053 0.0717,-0.38172 0.007,-0.56086 -0.0606,-0.14332 -0.12678,-0.28526 -0.20119,-0.41893 -0.21223,-0.36793 -0.22738,-0.7276 0.0441,-1.0831 0.1378,-0.17501 0.21083,-0.39687 0.20257,-0.62012 -0.0165,-0.46164 -0.21498,-0.84198 -0.52228,-1.1755 -0.0289,-0.0289 -0.0703,-0.0413 -0.11162,-0.0386"/><path id="path147" d="m 102.92,92.832 c -0.16399,0.0868 -0.19293,0.21084 -0.0868,0.3583 0.0896,0.11851 0.1695,0.24253 0.23702,0.37482 0.16123,0.33211 0.17639,0.65319 -0.0675,0.9729 -0.26872,0.35277 -0.28112,0.7524 -0.12127,1.1589 0.0703,0.17639 0.17364,0.33899 0.25494,0.51263 0.0744,0.14331 0.0744,0.31695 0,0.4644 -0.0179,0.0413 -0.0372,0.0896 -0.0634,0.14331 0.28939,0.14056 0.45475,0.0579 0.49334,-0.22048 0.0358,-0.22187 -0.007,-0.44787 -0.11438,-0.64355 -0.0455,-0.0772 -0.0868,-0.1502 -0.12815,-0.22737 -0.19569,-0.34589 -0.21911,-0.68903 0.0317,-1.0211 0.26182,-0.3514 0.27836,-0.7276 0.14056,-1.1245 -0.0896,-0.25769 -0.23014,-0.49609 -0.41617,-0.69453 -0.0413,-0.0469 -0.0854,-0.0896 -0.15985,-0.0537"/><path id="path149" d="m 105.4,92.818 c -0.0772,0.0482 -0.14745,0.10887 -0.20533,0.17639 -0.0455,0.0606 0.01,0.11576 0.0455,0.16675 0.0923,0.13229 0.17914,0.26596 0.25493,0.40652 0.16399,0.32659 0.17639,0.64905 -0.0592,0.95498 -0.0193,0.0248 -0.0358,0.051 -0.0524,0.0758 -0.1502,0.23702 -0.20808,0.52227 -0.15985,0.79788 0.0413,0.23289 0.12816,0.45476 0.26321,0.64906 0.0992,0.14056 0.14055,0.31695 0.11438,0.49058 -0.0179,0.0703 -0.0413,0.14056 -0.0703,0.20671 -0.0193,0.0689 0,0.11575 0.073,0.12264 0.25493,0.0248 0.33072,0.0152 0.37896,-0.24942 0.0441,-0.22738 0.007,-0.46165 -0.10887,-0.66284 -0.0482,-0.0841 -0.10335,-0.1695 -0.14469,-0.25631 -0.17226,-0.35003 -0.18604,-0.68902 0.0606,-1.0115 0.14194,-0.16675 0.21497,-0.38172 0.20532,-0.60221 0.004,-0.50849 -0.21497,-0.87092 -0.49333,-1.2072 -0.0193,-0.0317 -0.0896,-0.0703 -0.10198,-0.0579"/><path id="path151" d="m 109.03,94.577 c -0.12265,0.18328 -0.19017,0.39274 -0.19017,0.60772 -0.003,0.28801 0.0841,0.56775 0.24116,0.80477 0.15296,0.24529 0.23013,0.4892 0.0758,0.76343 -0.0413,0.0744 -0.005,0.113 0.0772,0.12265 0.0289,0.003 0.0606,0.003 0.0937,0 0.0951,0 0.20395,0.0165 0.24529,-0.10611 0.0579,-0.17225 0.10335,-0.34864 0.0386,-0.52503 -0.0634,-0.17226 -0.14057,-0.339 -0.22738,-0.50161 -0.20395,-0.36794 -0.22324,-0.71382 0.0455,-1.0735 0.26872,-0.35416 0.24943,-0.74276 0.10198,-1.1396 -0.0537,-0.14331 -0.1571,-0.13642 -0.30731,-0.0923 -0.0992,0.0289 -0.10197,0.0703 -0.051,0.22325 0.0648,0.19568 0.11162,0.39687 0.0358,0.59531 -0.0482,0.11575 -0.10886,0.22186 -0.17914,0.32108"/><path id="path153" d="m 104.12,95.764 c 0.0482,0.10198 0.0992,0.19844 0.15985,0.2949 0.12816,0.21084 0.1695,0.43133 0.0538,0.66559 -0.0152,0.0413 -0.0317,0.0799 -0.0441,0.12127 0.0606,0.0124 0.11851,0.022 0.17915,0.0262 0.20394,0.008 0.23978,-0.0234 0.2949,-0.22187 0.0537,-0.20395 0.0317,-0.42443 -0.0606,-0.61461 -0.0551,-0.11713 -0.12954,-0.22737 -0.18604,-0.34312 -0.17638,-0.339 -0.18879,-0.67111 0.0482,-0.99219 0.0317,-0.0386 0.0579,-0.0786 0.0827,-0.12127 0.22462,-0.38998 0.1695,-0.77997 -0.0124,-1.1686 -0.0234,-0.0413 -0.0648,-0.0661 -0.10886,-0.073 -0.16398,0.007 -0.26734,0.17501 -0.19844,0.32246 0.11438,0.31143 0.10198,0.59669 -0.10611,0.87505 -0.28525,0.38034 -0.27836,0.8034 -0.10197,1.2292"/><path id="path155" d="m 99.556,94.131 c -0.03168,0.15296 -0.09646,0.29765 -0.19568,0.41892 -0.15021,0.21222 -0.22049,0.47404 -0.19706,0.73311 0.0083,0.22462 0.07304,0.44236 0.19155,0.63114 0.1695,0.26597 0.28801,0.53468 0.11576,0.84888 -0.02893,0.0537 0.0028,0.0992 0.06063,0.11162 0.0248,0.006 0.04961,0.006 0.07992,0.006 0.24254,-0.008 0.27561,-0.0289 0.30317,-0.24253 0.02205,-0.13367 0.02205,-0.26872 0,-0.39964 -0.0441,-0.1502 -0.10197,-0.29214 -0.17501,-0.42581 -0.07441,-0.14745 -0.16674,-0.28525 -0.18052,-0.46164 -0.03447,-0.24667 0.03583,-0.4961 0.19017,-0.69178 0.11713,-0.14745 0.1819,-0.32659 0.18741,-0.51538 0.0041,-0.051 -0.01242,-0.10473 -0.04823,-0.14332 -0.09922,-0.0772 -0.31282,0.006 -0.33211,0.13092"/><path id="path157" d="m 102.58,94.151 c -0.0165,0.13091 -0.0703,0.24942 -0.15434,0.3514 -0.19155,0.24667 -0.27147,0.56086 -0.226,0.87229 0.0276,0.226 0.11162,0.44373 0.23978,0.63252 0.10886,0.1447 0.15572,0.3266 0.13367,0.50575 -0.0165,0.0772 -0.0386,0.15434 -0.0675,0.22875 -0.0276,0.0896 -0.005,0.13091 0.0841,0.13918 h 0.073 c 0.21498,-0.008 0.26045,-0.0496 0.2949,-0.26872 0.0413,-0.1943 0.0152,-0.39687 -0.0703,-0.57877 -0.0551,-0.10887 -0.12265,-0.21498 -0.17639,-0.32384 -0.1695,-0.33487 -0.19844,-0.66973 0.0358,-0.99219 0.0413,-0.0551 0.0772,-0.11575 0.10887,-0.17225 0.073,-0.12265 0.11162,-0.26321 0.11438,-0.40377 0.003,-0.0482 -0.0152,-0.0965 -0.0441,-0.13091 -0.10198,-0.0841 -0.33073,0.008 -0.34589,0.14056"/><path id="path159" d="m 105.07,94.364 c -0.0482,-0.0441 -0.12816,-0.0317 -0.16123,0.0262 -0.23703,0.27561 -0.34451,0.64079 -0.29077,1.0018 0.0358,0.22738 0.12127,0.44235 0.2508,0.63114 0.0951,0.13092 0.14332,0.29077 0.13092,0.45476 -0.0165,0.0841 -0.0386,0.16536 -0.0675,0.24942 -0.0358,0.113 -0.0165,0.14194 0.10197,0.14745 h 0.0579 c 0.1888,-0.003 0.23978,-0.0386 0.27148,-0.23151 0.0165,-0.12127 0.0221,-0.24529 0.0138,-0.36794 -0.0248,-0.16261 -0.0868,-0.32246 -0.18328,-0.4575 -0.0951,-0.13643 -0.15985,-0.2949 -0.1819,-0.45751 -0.0234,-0.24943 0.005,-0.4768 0.16674,-0.68213 0.10198,-0.13092 0.0854,-0.16674 -0.0482,-0.27147 z"/><path id="path161" d="m 102.15,94.685 c 0.0138,-0.0317 0.0138,-0.0703 -0.003,-0.10198 -0.073,-0.10611 -0.31557,-0.10611 -0.38447,0 -0.0923,0.1378 -0.15021,0.29766 -0.16536,0.46302 -0.0345,0.33073 0.0413,0.66008 0.22048,0.93844 0.0413,0.0606 0.0799,0.12541 0.10887,0.19293 0.073,0.17226 0.0703,0.37069 -0.01,0.53744 -0.0537,0.11851 -0.0317,0.1502 0.10197,0.15985 h 0.0551 c 0.19155,0 0.22048,-0.0262 0.26872,-0.20533 0.0606,-0.24253 0.0248,-0.49885 -0.0992,-0.71658 -0.0772,-0.1254 -0.1447,-0.25631 -0.20395,-0.39136 -0.10887,-0.24667 -0.091,-0.53055 0.0468,-0.76481 0.0262,-0.0345 0.0482,-0.0703 0.0634,-0.11162"/><path id="path163" d="m 106.21,94.545 c -0.062,-0.0965 -0.11852,-0.10336 -0.17915,-0.004 -0.0675,0.0965 -0.11851,0.19844 -0.16123,0.31144 -0.11438,0.37069 -0.0537,0.77721 0.17088,1.0983 0.17501,0.27561 0.23564,0.54708 0.0827,0.85163 0,0.0179 0.004,0.0386 0.01,0.0565 0.0799,0.007 0.16261,0.0165 0.24942,0.0221 0.0841,0.007 0.1571,-0.0469 0.17639,-0.13092 0.073,-0.1819 0.0772,-0.38998 0.01,-0.57602 -0.0703,-0.16674 -0.15434,-0.32246 -0.23702,-0.48093 -0.1254,-0.24254 -0.18328,-0.50161 -0.0772,-0.75241 0.0579,-0.12678 0.0413,-0.28112 -0.0441,-0.3955"/><path id="path165" d="m 100.89,94.65 c -0.0827,-0.0372 -0.17225,-0.0606 -0.26183,-0.0661 -0.0579,0.0124 -0.10886,0.0469 -0.1378,0.10198 -0.11576,0.22324 -0.15434,0.48369 -0.10473,0.73311 0.0441,0.23014 0.13367,0.45062 0.26458,0.64217 0.11576,0.16812 0.1447,0.37483 0.0841,0.56775 -0.0166,0.0579 -0.0455,0.11576 -0.0717,0.17914 0.24805,0.14332 0.41755,0.0841 0.47405,-0.15985 0.0138,-0.0537 0.0193,-0.10886 0.022,-0.16674 0.0234,-0.26872 -0.0951,-0.48921 -0.226,-0.71107 -0.19155,-0.32522 -0.26321,-0.6587 -0.0427,-1.0073 0.0165,-0.0358 0.0165,-0.0772 0,-0.113"/><path id="path167" d="m 98.234,96.852 c 0.09922,0.0138 0.1695,0.0262 0.24253,0.0289 0.14194,0.004 0.1695,-0.0179 0.21773,-0.15021 0.06752,-0.1819 0.06752,-0.38034 0,-0.56224 -0.05375,-0.14469 -0.12403,-0.28525 -0.2012,-0.41617 -0.11851,-0.19981 -0.17363,-0.42719 -0.15434,-0.65594 0.01242,-0.15572 -0.0055,-0.17639 -0.1254,-0.19706 -0.17501,-0.0248 -0.2384,0.007 -0.25907,0.15434 -0.0096,0.12127 -0.0096,0.24391 0.0069,0.36794 0.03172,0.24391 0.15021,0.45199 0.27836,0.66007 0.12816,0.1888 0.1447,0.43133 0.03859,0.6339 -0.01242,0.0317 -0.02205,0.0661 -0.0441,0.13643"/><path id="path169" d="m 100.07,95.051 c -0.23013,-0.0538 -0.32935,-0.0455 -0.31282,0.21084 0,0.0165 0.0055,0.0358 0.0055,0.0537 0.02618,0.26045 0.11575,0.50574 0.26321,0.72071 0.14745,0.19844 0.1695,0.46165 0.0606,0.68213 -0.051,0.10887 -0.0289,0.14469 0.0923,0.15434 0.0386,0.003 0.0744,0.003 0.11299,0 0.13781,0 0.1888,-0.0289 0.22049,-0.16674 0.0166,-0.0841 0.0289,-0.1695 0.0345,-0.25632 0.007,-0.17225 -0.0372,-0.34588 -0.12678,-0.49609 -0.1447,-0.24667 -0.28525,-0.49058 -0.27561,-0.79099 -0.003,-0.0482 -0.0317,-0.0896 -0.0744,-0.11162"/><path id="path171" d="m 108.54,95.089 c -0.16674,-0.0386 -0.32384,0.10197 -0.2949,0.27423 0.004,0.0427 0.0124,0.0841 0.0248,0.1254 0.0717,0.18879 0.15159,0.37483 0.24392,0.55673 0.12815,0.23013 0.18328,0.45475 0.0455,0.69729 -0.01,0.0275 -0.0193,0.0524 -0.0262,0.0813 0.29214,0.12402 0.44786,0.0441 0.49333,-0.23426 0.007,-0.0248 0.007,-0.051 0.007,-0.073 0.0179,-0.22462 -0.0427,-0.44924 -0.16674,-0.6339 -0.13091,-0.21497 -0.24391,-0.42995 -0.24391,-0.68902 0.007,-0.051 -0.0317,-0.0978 -0.0827,-0.10473"/><path id="path173" d="m 106.72,96.82 c 0.0992,0.0813 0.19292,0.0524 0.28525,0.0496 0.0772,0 0.1447,-0.0565 0.1571,-0.13229 0.0455,-0.1695 0.0868,-0.339 0.022,-0.51264 -0.0468,-0.14056 -0.11162,-0.28111 -0.1819,-0.41478 -0.0868,-0.14194 -0.14745,-0.29904 -0.18053,-0.46303 -0.0152,-0.0441 -0.0345,-0.0882 -0.0606,-0.12678 -0.0661,0.0386 -0.11713,0.0661 -0.16812,0.10198 -0.15985,0.10886 -0.17087,0.113 -0.10059,0.30041 0.0579,0.14745 0.12816,0.29214 0.20808,0.42995 0.11575,0.20808 0.16674,0.41341 0.0648,0.63665 -0.0193,0.0386 -0.0289,0.0799 -0.0455,0.13092"/><path id="path175" d="m 101.24,95.377 c -0.20119,0.003 -0.25356,0.0675 -0.1943,0.26183 0.0124,0.0427 0.0275,0.0799 0.0468,0.11851 0.0579,0.10887 0.11299,0.22049 0.17638,0.32659 0.12403,0.18191 0.14056,0.42031 0.0413,0.61874 -0.0193,0.0345 -0.0248,0.073 -0.0551,0.15572 0.10611,0.007 0.17088,0.0165 0.24116,0.0165 0.1571,0 0.17915,-0.022 0.22738,-0.16675 0.0703,-0.21359 0.0579,-0.44372 -0.0386,-0.64905 -0.0923,-0.20257 -0.19844,-0.39687 -0.29491,-0.59669 -0.0248,-0.0565 -0.0868,-0.0923 -0.1502,-0.0854"/><path id="path177" d="m 107.83,95.402 c -0.14056,0.0165 -0.17915,0.0606 -0.13367,0.19568 0.051,0.14469 0.11575,0.2825 0.19155,0.41616 0.14469,0.23014 0.19568,0.46027 0.0703,0.71796 -0.0124,0.0345 -0.01,0.0799 0.01,0.11438 0.0772,0.0772 0.35277,0.0262 0.38998,-0.0772 0.0331,-0.11162 0.0579,-0.22462 0.0772,-0.339 -0.0124,-0.18603 -0.0703,-0.36518 -0.16674,-0.52503 -0.0606,-0.11575 -0.12127,-0.23013 -0.17501,-0.34589 -0.0744,-0.16261 -0.0827,-0.17363 -0.26321,-0.15709"/><path id="path179" d="m 109.79,96.859 c 0.15986,0.0896 0.35829,0.0138 0.41617,-0.15985 0.0634,-0.22049 0.0441,-0.45751 -0.0551,-0.66559 -0.0634,-0.12403 -0.14332,-0.24667 -0.20119,-0.37483 -0.0896,-0.19155 -0.26872,-0.20119 -0.46716,-0.26596 0.003,0.0648 0.008,0.12816 0.022,0.19292 0.0538,0.14057 0.11851,0.28113 0.19155,0.41479 0.14469,0.24392 0.20809,0.4837 0.0703,0.74966 -0.008,0.0386 -0.003,0.0799 0.0234,0.10886"/><path id="path181" d="m 98.762,95.883 c 0.06477,0.15986 0.1571,0.29352 0.17639,0.45062 0.0193,0.1571 -0.03583,0.32108 -0.06477,0.52503 0.06753,0.004 0.15158,0.01 0.23702,0.0138 0.08957,0.008 0.1695,-0.0524 0.18604,-0.14194 0.10611,-0.31006 0.03858,-0.59118 -0.13092,-0.86403 -0.02893,-0.0634 -0.10611,-0.0923 -0.1695,-0.0675 z"/><path id="path183" d="m 107.53,95.854 c -0.0868,0.0193 -0.17364,0.051 -0.26045,0.0758 0.004,0.0331 0.011,0.0648 0.0193,0.0965 0.0331,0.073 0.073,0.14193 0.10059,0.21773 0.0496,0.15985 0.0345,0.33624 -0.0455,0.48369 -0.0455,0.0965 -0.0165,0.1378 0.0896,0.14469 0.0441,0.003 0.0868,0.003 0.13229,0 0.12403,-0.007 0.17088,-0.0289 0.2012,-0.14745 0.0785,-0.26183 0.0469,-0.54846 -0.091,-0.78824 -0.0317,-0.0537 -0.0758,-0.0992 -0.14607,-0.0827"/></g></g></svg>